<?xml version="1.0" standalone="no"?>
<!DOCTYPE svg PUBLIC "-//W3C//DTD SVG 20010904//EN"
 "http://www.w3.org/TR/2001/REC-SVG-20010904/DTD/svg10.dtd">
<svg version="1.0" xmlns="http://www.w3.org/2000/svg"
 width="768.000000pt" height="768.000000pt" viewBox="0 0 768.000000 768.000000"
 preserveAspectRatio="xMidYMid meet">
<metadata>
Created by potrace 1.11, written by Peter Selinger 2001-2013
</metadata>
<g transform="translate(0.000000,768.000000) scale(0.100000,-0.100000)"
fill="#000000" stroke="none">
<path d="M1817 7514 c-2 -3 -29 -7 -58 -9 -30 -2 -64 -6 -75 -9 -12 -2 -39 -7
-59 -10 -158 -25 -411 -114 -555 -195 -30 -17 -64 -35 -76 -40 -28 -13 -160
-98 -176 -114 -7 -7 -20 -18 -29 -23 -40 -23 -113 -88 -219 -194 -121 -122
-130 -132 -217 -248 -85 -114 -213 -340 -213 -377 0 -8 -5 -15 -12 -15 -6 0
-9 -3 -5 -6 3 -3 -3 -26 -14 -50 -18 -43 -68 -217 -74 -258 -6 -39 -16 -101
-22 -126 -12 -57 -11 -408 3 -491 7 -46 16 -99 19 -118 21 -132 90 -332 161
-466 61 -117 69 -130 82 -138 6 -4 12 -12 12 -18 0 -11 64 -100 124 -173 42
-50 206 -217 206 -209 0 2 11 -6 24 -19 26 -26 43 -40 101 -83 22 -16 41 -33
43 -37 2 -4 8 -8 13 -8 4 0 39 -20 76 -44 72 -46 195 -111 278 -147 55 -23
234 -90 250 -93 6 -1 16 -5 23 -9 6 -5 12 -6 12 -2 0 3 13 -1 29 -9 16 -9 31
-13 34 -10 2 3 27 -2 53 -10 27 -9 60 -18 74 -20 14 -3 25 -5 25 -6 0 -1 9 -3
20 -4 21 -3 96 -16 130 -22 11 -2 38 -7 60 -9 38 -6 62 -8 165 -20 192 -21
565 -21 750 0 19 3 62 7 95 10 33 2 71 7 85 10 14 3 46 7 71 10 25 3 56 8 70
11 13 3 38 7 54 9 17 3 53 9 80 15 28 6 59 12 70 14 11 2 58 14 105 26 47 12
95 24 106 26 12 2 38 11 59 20 59 24 51 11 -22 -36 -38 -24 -69 -48 -71 -52
-2 -4 -8 -8 -14 -8 -8 0 -71 -43 -88 -60 -3 -3 -34 -27 -70 -55 -57 -43 -225
-181 -256 -210 -6 -5 -51 -46 -100 -90 -87 -78 -534 -520 -534 -528 0 -2 -24
-29 -53 -59 -65 -69 -207 -228 -278 -312 -13 -15 -33 -38 -44 -50 -11 -12 -38
-44 -60 -70 -22 -27 -46 -55 -53 -62 -6 -7 -12 -14 -12 -17 0 -2 -13 -19 -30
-38 -23 -28 -125 -151 -158 -194 -4 -5 -36 -46 -70 -90 -35 -44 -68 -87 -75
-95 -7 -8 -51 -67 -97 -130 -153 -207 -181 -245 -193 -260 -7 -9 -43 -63 -82
-120 -38 -58 -75 -111 -82 -118 -7 -7 -13 -17 -13 -21 0 -4 -8 -16 -17 -27
-10 -11 -23 -29 -29 -40 -6 -10 -48 -75 -93 -144 -45 -69 -90 -141 -101 -160
-42 -71 -62 -105 -69 -110 -3 -3 -13 -18 -21 -35 -8 -16 -17 -32 -20 -35 -3
-3 -10 -14 -16 -25 -6 -11 -23 -42 -39 -70 -15 -27 -41 -75 -58 -105 -16 -30
-34 -59 -38 -64 -5 -6 -9 -14 -9 -18 0 -5 273 -7 607 -6 596 3 608 3 618 23 5
11 42 76 81 145 39 69 84 149 100 178 16 30 43 79 61 110 17 31 45 82 61 112
38 71 96 175 212 380 51 91 98 174 104 185 6 11 14 22 18 25 4 3 12 17 18 30
5 14 24 48 42 75 17 28 39 64 48 80 78 136 349 556 376 582 8 8 14 20 14 28 0
7 3 15 8 17 12 5 62 76 62 87 0 6 4 11 9 11 5 0 20 17 32 38 13 20 28 42 34
48 5 7 19 24 30 40 25 35 106 144 122 164 6 8 27 33 45 56 18 22 44 55 58 73
14 18 30 38 37 45 6 7 35 42 64 77 55 66 83 98 155 178 41 45 42 45 37 16 -7
-40 -12 -618 -5 -629 2 -4 6 -34 8 -65 7 -117 23 -253 40 -346 2 -10 6 -35 9
-55 6 -42 8 -51 30 -150 9 -41 18 -85 21 -97 2 -12 9 -34 14 -48 5 -14 8 -25
5 -25 -2 0 4 -24 14 -52 10 -29 19 -57 21 -63 5 -21 9 -32 30 -90 12 -33 23
-64 24 -70 18 -64 114 -267 184 -390 88 -156 289 -392 411 -483 20 -15 42 -32
49 -39 7 -7 26 -20 42 -30 17 -9 30 -21 30 -25 0 -4 4 -8 9 -8 5 0 38 -17 73
-39 54 -33 94 -53 223 -111 20 -9 167 -59 195 -66 79 -19 269 -55 325 -61 145
-15 459 -9 582 12 18 3 45 7 60 9 57 9 265 66 293 81 17 9 30 13 30 11 0 -11
264 115 325 154 17 11 37 23 45 27 21 9 84 56 88 66 2 4 9 7 15 7 7 0 23 10
37 23 14 12 43 35 65 52 66 49 256 244 326 335 76 98 159 222 159 238 0 6 4
12 8 14 10 4 89 167 119 247 21 57 46 140 58 194 2 9 6 21 9 26 3 5 8 28 11
51 3 24 7 46 9 49 11 18 20 166 21 316 0 155 -6 249 -21 315 -3 14 -7 37 -9
51 -9 59 -64 255 -85 304 -122 276 -218 423 -395 601 -94 95 -182 168 -285
240 -82 57 -314 186 -340 189 -3 0 -22 8 -44 19 -21 10 -44 19 -50 20 -6 1
-15 4 -21 7 -5 4 -48 19 -95 33 -47 15 -92 30 -100 33 -8 3 -19 7 -25 8 -5 2
-30 8 -55 15 -52 14 -52 14 -105 25 -22 4 -49 9 -60 12 -85 17 -117 22 -165
28 -30 3 -66 8 -80 10 -208 34 -655 34 -935 0 -16 -2 -55 -6 -86 -9 -31 -4
-67 -9 -80 -11 -13 -3 -42 -8 -64 -11 -109 -14 -393 -81 -468 -109 -20 -8 -41
-15 -45 -15 -4 0 44 34 106 75 106 70 258 180 292 211 8 8 44 38 80 66 36 29
70 57 76 63 6 5 42 37 80 70 120 106 184 166 369 350 200 201 339 348 468 499
23 27 47 54 54 61 14 14 140 162 184 215 16 19 35 42 42 50 27 30 177 219 270
340 53 69 100 130 105 135 9 11 175 238 200 274 9 13 26 35 37 50 11 14 25 34
30 43 9 16 200 299 217 323 19 26 78 117 78 121 0 2 16 27 35 54 19 27 35 52
35 54 0 2 18 33 39 67 22 35 77 129 122 209 45 80 89 153 97 163 8 9 11 18 6
18 -5 1 -280 2 -611 3 -595 2 -602 1 -612 -19 -6 -11 -23 -42 -39 -70 -54 -93
-109 -190 -144 -255 -20 -36 -70 -128 -113 -205 -42 -77 -93 -169 -113 -205
-19 -36 -62 -112 -95 -170 -33 -58 -71 -125 -85 -150 -14 -24 -49 -84 -78
-133 -30 -49 -54 -91 -54 -93 0 -8 -229 -369 -319 -503 -53 -79 -100 -151
-106 -160 -5 -9 -19 -28 -30 -42 -11 -14 -27 -36 -35 -49 -31 -46 -205 -281
-232 -314 -10 -12 -54 -66 -98 -121 -125 -154 -266 -317 -283 -327 -9 -5 -11
15 -7 75 7 103 4 460 -5 541 -3 34 -8 87 -10 119 -4 55 -9 97 -21 197 -7 57
-30 190 -44 255 -6 28 -12 61 -14 75 -14 97 -99 374 -158 515 -17 39 -36 85
-42 103 -7 18 -18 38 -24 44 -7 7 -12 17 -12 24 0 7 -16 41 -36 76 -20 34 -46
80 -57 101 -11 20 -24 37 -29 37 -4 0 -8 5 -8 10 0 12 -56 94 -113 165 -47 58
-264 275 -276 275 -5 0 -24 13 -42 30 -19 16 -40 30 -46 30 -7 0 -13 4 -13 8
0 9 -129 85 -195 115 -195 91 -408 150 -615 173 -60 7 -447 13 -453 8z m303
-769 c14 -3 41 -8 60 -11 47 -7 137 -33 180 -52 67 -29 155 -75 158 -84 2 -4
9 -8 15 -8 25 0 237 -188 237 -210 0 -4 4 -10 8 -12 13 -5 112 -134 112 -146
0 -6 4 -12 8 -14 12 -4 71 -107 114 -198 75 -156 172 -464 193 -610 3 -25 8
-52 10 -60 3 -8 7 -33 10 -55 9 -77 15 -119 20 -144 5 -27 14 -141 20 -246 6
-102 7 -494 1 -504 -3 -5 -30 -12 -59 -16 -28 -4 -61 -9 -72 -11 -26 -5 -65
-11 -140 -19 -33 -4 -73 -9 -90 -11 -223 -30 -635 -20 -845 21 -14 3 -41 8
-60 11 -48 9 -186 44 -220 56 -8 3 -44 16 -80 28 -83 28 -320 141 -320 152 0
4 -4 8 -10 8 -14 0 -134 83 -200 138 -49 41 -146 137 -176 174 -37 46 -84 117
-84 127 0 6 -4 11 -10 11 -5 0 -10 6 -10 14 0 8 -9 30 -19 48 -21 35 -58 144
-67 192 -3 16 -7 33 -9 37 -17 26 -26 351 -12 424 3 17 9 50 12 75 8 47 38
153 58 205 28 68 102 204 140 255 44 59 168 185 206 210 13 8 29 21 36 27 32
31 229 124 320 152 107 32 136 38 230 47 33 4 61 7 63 9 5 4 246 -4 272 -10z
m3265 -3389 c91 -8 144 -14 175 -20 54 -11 86 -16 120 -21 19 -3 82 -18 140
-35 58 -17 112 -32 120 -34 43 -12 228 -92 281 -122 33 -18 62 -34 64 -34 2 0
38 -24 81 -52 42 -29 84 -57 92 -63 91 -58 312 -302 312 -343 0 -6 4 -12 8
-14 11 -4 60 -117 78 -180 23 -76 31 -112 42 -197 10 -71 9 -276 -2 -341 -4
-25 -10 -58 -12 -75 -7 -42 -51 -186 -74 -240 -11 -25 -20 -49 -20 -53 -1 -4
-7 -14 -15 -22 -7 -8 -20 -31 -30 -50 -37 -74 -169 -226 -252 -290 -122 -95
-295 -179 -422 -205 -9 -2 -38 -9 -66 -15 -103 -23 -343 -32 -435 -16 -19 4
-51 9 -70 12 -19 2 -44 8 -55 11 -11 4 -24 8 -30 9 -59 12 -233 91 -266 120
-8 8 -19 14 -22 14 -4 0 -16 8 -26 17 -11 10 -34 29 -52 43 -76 60 -259 270
-259 298 0 6 -4 12 -8 14 -26 10 -134 229 -193 388 -37 102 -105 347 -115 419
-3 20 -7 47 -10 61 -2 14 -7 43 -10 65 -3 22 -7 51 -9 65 -6 40 -14 111 -20
165 -13 125 -21 432 -15 592 l3 71 56 7 c30 4 64 9 76 11 26 5 90 14 135 19
19 2 55 6 80 9 25 3 81 8 125 11 43 3 80 7 81 8 5 5 352 -1 419 -7z"/>
</g>
</svg>
